<?xml version="1.0" encoding="utf-8"?>
<!-- Generator: Adobe Illustrator 16.0.0, SVG Export Plug-In . SVG Version: 6.00 Build 0)  -->
<!DOCTYPE svg PUBLIC "-//W3C//DTD SVG 1.1//EN" "http://www.w3.org/Graphics/SVG/1.1/DTD/svg11.dtd">
<svg version="1.1" id="Calque_1" xmlns="http://www.w3.org/2000/svg" xmlns:xlink="http://www.w3.org/1999/xlink" x="0px" y="0px"
	 width="430px" height="112px" viewBox="0 0 430 112" enable-background="new 0 0 430 112" xml:space="preserve">
<g>
	<path d="M57.09,26.773l2.228,2.881l1.636-1.266l-3.629-4.689l-1.281,0.989c0.509,0.79-0.221,1.741-1.122,2.418l0.651,0.841
		L57.09,26.773z"/>
	<path d="M63.005,24.067c0.113-0.46,0.438-0.731,0.928-0.983c0.715-0.367,1.307-0.222,1.571,0.293
		c0.264,0.516-0.076,1.109-0.75,1.457c-0.521,0.268-1.259,0.34-1.483-0.072l-1.737,0.893c0.751,1.213,2.203,1.021,3.756,0.224
		c1.656-0.851,2.588-2.151,1.92-3.453c-0.563-1.099-1.812-1.241-3.273-0.491c-0.542,0.278-0.97,0.652-1.196,1.094l-0.02,0.01
		l-0.229-1.098l3.158-1.621l-0.56-1.091l-4.497,2.308l0.836,3.341L63.005,24.067z"/>
	<path d="M100.675,22.244c-0.543-0.275-1.097-0.402-1.586-0.326l-0.021-0.01l0.754-0.829l3.168,1.6l0.553-1.093l-4.511-2.279
		l-2.209,2.64l1.579,0.798c0.438-0.18,0.85-0.076,1.341,0.172c0.718,0.363,0.947,0.928,0.687,1.443
		c-0.261,0.518-0.942,0.592-1.619,0.25c-0.522-0.264-1.016-0.818-0.814-1.241l-1.743-0.881c-0.539,1.321,0.469,2.382,2.027,3.171
		c1.661,0.838,3.262,0.828,3.923-0.478C102.759,24.078,102.141,22.984,100.675,22.244z"/>
	<path d="M107.858,24.512c-1.318-1.019-2.958-1.188-3.733-0.186c-0.707,0.916-0.369,2.262,0.885,3.232
		c0.545,0.422,1.246,0.736,1.808,0.591l0.018,0.015c-0.515,0.592-1.257,0.932-2.093,0.285c-0.191-0.146-0.365-0.336-0.462-0.529
		c-0.103-0.186-0.132-0.393-0.054-0.568l-1.445-1.117c-0.453,1.037,0.066,2.094,1.22,2.986c2.019,1.559,3.672,0.977,4.719-0.375
		C109.692,27.586,109.703,25.938,107.858,24.512z M107.652,27.032c-0.328,0.423-0.993,0.458-1.647-0.048
		c-0.636-0.492-0.752-1.131-0.414-1.568c0.302-0.391,0.994-0.404,1.576,0.047C107.831,25.975,107.975,26.613,107.652,27.032z"/>
	<path d="M42.353,48.834c1.041,0.344,1.805-0.66,2.412-1.707c0.61-1.056,1.063-2.152,1.508-2.006
		c0.378,0.125,0.312,0.709,0.167,1.145c-0.207,0.623-0.598,1.232-1.111,1.024l-0.672,2.028c1.305,0.42,2.378-0.953,2.891-2.502
		c0.485-1.463,0.56-3.337-0.7-3.754c-1.058-0.351-1.817,0.693-2.419,1.726c-0.607,1.046-1.071,2.128-1.581,1.956
		c-0.428-0.141-0.379-0.827-0.177-1.438c0.284-0.86,0.691-1.355,1.383-1.174l0.673-2.029c-1.483-0.477-2.587,0.91-3.181,2.697
		C40.979,46.512,40.891,48.349,42.353,48.834z"/>
	<path d="M41.685,59.055l0.163-2.129c-0.69-0.135-1.071-0.74-0.994-1.737c0.107-1.374,1.047-1.831,1.947-1.762
		c0.899,0.07,1.757,0.666,1.651,2.039c-0.068,0.895-0.44,1.513-1.061,1.577l-0.164,2.131c1.464,0.057,2.443-1.792,2.578-3.559
		c0.192-2.471-1.084-4.183-2.84-4.318c-1.756-0.135-3.28,1.359-3.472,3.834C39.334,57.205,40.131,58.822,41.685,59.055z"/>
	<polygon points="46.361,65.915 44.18,66.288 43.702,63.516 45.883,63.141 45.52,61.034 39.532,62.064 39.895,64.173 42.361,63.747 
		42.838,66.521 40.373,66.945 40.736,69.052 46.723,68.021 	"/>
	<path d="M48.889,73.162c-1.058-2.357-2.935-3.115-4.543-2.396c-1.606,0.724-2.29,2.629-1.233,4.987
		c1.057,2.356,2.934,3.112,4.541,2.394C49.262,77.427,49.946,75.521,48.889,73.162z M46.78,76.197
		c-0.823,0.367-1.861,0.256-2.426-1.002c-0.563-1.258,0.044-2.109,0.867-2.479c0.823-0.366,1.862-0.255,2.426,1.003
		C48.21,74.977,47.604,75.829,46.78,76.197z"/>
	<polygon points="52.66,79.883 51.365,78.182 46.532,81.861 50.143,86.605 51.226,85.782 48.91,82.738 	"/>
	<path d="M51.258,87.917l1.666,1.431l1.102-0.49l2.17,1.865l-0.326,1.153l1.69,1.452l1.631-6.607l-1.646-1.414L51.258,87.917z
		 M56.576,89.501l-1.411-1.213l2.091-1.007l0.018,0.014L56.576,89.501z"/>
	<path d="M74.472,95.277c0.843,0.176,1.455,0.623,1.417,1.146l2.092,0.435c0.118-1.531-1.522-2.559-3.188-2.903
		c-2.43-0.504-4.29,0.546-4.647,2.271s0.932,3.426,3.361,3.93c0.743,0.154,1.729,0.15,2.399-0.311l-0.011,0.674l1.349,0.281
		l0.676-3.259l-3.375-0.699l-0.239,1.149l1.463,0.304c-0.225,0.519-0.997,0.731-2.032,0.517c-1.349-0.278-1.684-1.271-1.501-2.152
		C72.422,95.773,73.122,94.997,74.472,95.277z"/>
	<polygon points="83.28,99.548 83.222,98.393 87.237,98.188 87.174,96.964 83.159,97.169 83.106,96.107 87.499,95.883 
		87.435,94.616 80.907,94.948 81.216,101.016 87.858,100.68 87.789,99.318 	"/>
	<polygon points="94.555,92.734 95.668,96.309 95.647,96.314 91.814,93.587 89.719,94.24 91.525,100.041 93.444,99.443 
		92.318,95.828 92.341,95.82 96.187,98.589 98.282,97.936 96.475,92.136 	"/>
	<polygon points="102.993,93.962 102.385,92.979 105.805,90.864 105.161,89.822 101.74,91.936 101.181,91.03 104.925,88.718 
		104.258,87.639 98.697,91.075 101.891,96.243 107.548,92.748 106.834,91.59 	"/>
	<polygon points="109.342,82.854 111.417,87.178 111.401,87.193 107.061,85.152 105.492,86.734 111.625,89.18 113.356,87.434 
		110.913,81.271 	"/>
	<polygon points="117.022,80.523 116.032,79.924 118.118,76.486 117.069,75.852 114.985,79.288 114.076,78.736 116.356,74.977 
		115.272,74.316 111.883,79.907 117.078,83.057 120.527,77.369 119.363,76.664 	"/>
	<polygon points="117.708,67.344 121.293,68.425 121.287,68.445 116.88,70.094 116.247,72.193 122.064,73.947 122.645,72.023 
		119.019,70.932 119.025,70.908 123.473,69.271 124.105,67.172 118.289,65.42 	"/>
	<path d="M123.109,56.48c-1.097-0.049-1.558,1.125-1.857,2.297c-0.299,1.184-0.436,2.361-0.904,2.341
		c-0.4-0.019-0.493-0.597-0.473-1.056c0.029-0.654,0.238-1.349,0.79-1.287l0.095-2.135c-1.37-0.051-2.028,1.565-2.102,3.194
		c-0.068,1.539,0.371,3.362,1.697,3.421c1.114,0.051,1.559-1.16,1.858-2.318c0.299-1.172,0.453-2.338,0.989-2.314
		c0.451,0.02,0.59,0.693,0.562,1.336c-0.04,0.906-0.296,1.493-1.012,1.508l-0.095,2.135c1.556,0.058,2.242-1.58,2.326-3.461
		C125.062,58.337,124.647,56.549,123.109,56.48z"/>
	<rect x="118.413" y="51.446" transform="matrix(0.9898 -0.1426 0.1426 0.9898 -6.2491 17.8617)" width="6.076" height="2.137"/>
	<path d="M119.558,48.919c1.054-0.362,1.024-1.651,0.878-2.841c-0.151-1.198-0.435-2.34,0.073-2.514
		c0.426-0.147,0.804,0.428,1.012,1.036c0.294,0.86,0.271,1.499-0.39,1.774l0.693,2.021c1.469-0.518,1.509-2.291,0.896-4.074
		c-0.584-1.705-1.626-3.217-3.082-2.719c-1.038,0.355-1.037,1.619-0.887,2.818c0.154,1.211,0.458,2.357,0.015,2.509
		c-0.378,0.129-0.678-0.375-0.826-0.809c-0.212-0.62-0.271-1.341,0.264-1.488l-0.695-2.021c-1.291,0.456-1.313,2.2-0.784,3.743
		C117.226,47.812,118.302,49.35,119.558,48.919z"/>
	<circle cx="64.176" cy="94.125" r="1.45"/>
	<circle cx="49.987" cy="34.511" r="1.45"/>
	<circle cx="113.984" cy="34.511" r="1.45"/>
	<polygon points="85.683,17.848 84.506,19.691 87.387,19.691 87.387,18.799 86.252,18.805 86.88,17.865 86.252,16.896 
		87.367,16.891 87.367,16.009 84.506,16.009 	"/>
	<polygon points="79.457,18.805 78.747,18.812 78.747,16.891 79.407,16.896 79.407,16.009 77.038,16.009 77.038,16.896 
		77.696,16.891 77.696,18.812 76.995,18.805 76.995,19.691 79.457,19.691 	"/>
	<polygon points="82.811,17.307 81.312,17.307 81.318,15.996 80.218,15.996 80.218,19.691 81.318,19.691 81.312,18.223 
		82.811,18.223 82.811,19.691 83.908,19.691 83.908,15.996 82.811,15.996 	"/>
	<path d="M81.6,13.811c0-0.278,0.2-0.455,0.491-0.455c0.261,0,0.457,0.199,0.457,0.455l0.014,1.306h2.049V14.02h-1.256l-0.005-0.281
		c-0.007-0.787-0.371-1.42-1.266-1.42c-0.688,0-1.163,0.385-1.247,1.045c-0.016,0.141-0.016,0.289-0.016,0.433v0.224h-1.255
		l-0.001,1.097h2.033L81.6,13.811z"/>
	<circle cx="82.091" cy="21.219" r="0.66"/>
	<path d="M92.276,11.779l0.973-1.198l-5.668,0.834l0.897-5.604L84.012,9.43L81.96,4.064l-2.05,5.37l-4.457-3.627l0.907,5.68
		l-5.681-0.91l0.987,1.217C50.395,16.527,34.44,35.54,34.44,58.214c0,26.228,21.337,47.563,47.563,47.563
		c26.227,0,47.563-21.336,47.563-47.563C129.566,35.516,113.58,16.489,92.276,11.779z M82.064,10.614
		c3.597,0,6.523,2.925,6.523,6.521c0,3.596-2.926,6.521-6.523,6.521s-6.523-2.926-6.523-6.521
		C75.541,13.539,78.467,10.614,82.064,10.614z M88.07,25.372c7.098,1.308,13.419,4.86,18.191,9.898h-3.056v2.28h-2.781v-2.28h-3.785
		v3.149h-2.237c0,0,0.015-4.795,0.015-4.843c0-1.079-0.878-1.956-1.957-1.956s-1.957,0.877-1.957,1.956
		c0,0.048,0.015,25.402,0.015,25.402l-3.881,3.576v1.889c-1.706,0.246-3.125,1.342-3.846,2.834v-38.7l1.298-3.758l4.386,3.566
		L88.07,25.372z M89.884,80.161c-0.968,0.379-1.656,1.313-1.656,2.415c0,1.434,1.163,2.597,2.598,2.597h3.271
		c1.435,0,2.598-1.163,2.598-2.597c0-1.102-0.688-2.036-1.656-2.415c4.426-1.542,7.609-5.741,7.609-10.695
		c0-2.562-1.899-4.665-4.364-5.021v-1.889l-3.88-3.576v-7.447h2.237v3.147h3.785V52.3h2.781v2.38h3.785v-8.415h-3.785v2.036h-2.781
		v-2.036h-3.14v-2.58h3.14V41.65h2.781v2.035h3.785v-7.629c5.241,5.898,8.43,13.66,8.43,22.156
		c0,18.163-14.566,32.978-32.628,33.397V72.841C83.861,76.261,86.508,78.984,89.884,80.161z M84.893,69.466
		c0-1.218,0.88-2.224,2.036-2.431c0.098,1.445,1.289,2.592,2.759,2.592h5.555c1.469,0,2.661-1.146,2.758-2.592
		c1.152,0.212,2.028,1.217,2.028,2.431c0,4.679-3.223,7.504-7.567,8.579C88.116,76.97,84.893,74.145,84.893,69.466z M59.643,44.689
		c-0.177,0.235-0.301,0.514-0.301,0.83c0,0.221,0.062,0.423,0.153,0.609l-8.646,0.016c0.38-0.978,0.804-1.932,1.271-2.862
		L59.643,44.689z M54.188,39.717c0.979-1.467,2.071-2.852,3.263-4.145c0.601,2.119,1.917,4.024,3.645,5.391
		c-0.238,0.145-0.443,0.348-0.552,0.628c-0.069,0.179-0.091,0.361-0.082,0.541L54.188,39.717z M51.082,50.804
		c0,0,4.135-0.771,8.635-1.609c-0.034,0.231-0.032,0.472,0.059,0.706c0.06,0.156,0.154,0.283,0.256,0.4l-8.506,3.312
		c-1.189,0.726-1.533,2.187-0.847,3.295c0.332,0.537,0.853,0.912,1.468,1.058c0.615,0.146,1.25,0.04,1.787-0.291l7.473-4.619
		c0.052,0.229,0.14,0.452,0.31,0.638c0.111,0.122,0.245,0.21,0.383,0.282l-6.737,6.158c-0.846,1.106-0.64,2.593,0.399,3.38
		c1.04,0.786,2.527,0.58,3.313-0.459l5.362-7.086c0.124,0.193,0.28,0.368,0.501,0.479c0.118,0.059,0.242,0.075,0.365,0.099
		c0.027,0.02,0.051,0.039,0.077,0.057l-3.736,7.524c-0.38,1.3,0.327,2.571,1.542,2.92c1.216,0.347,2.487-0.36,2.835-1.575
		l2.157-7.543c0.928,0.278,1.909,0.432,2.927,0.432c0.828,0,1.372-0.068,2.142-0.256c-0.007,1.362-0.014,2.655-0.015,2.775
		c-0.181,0.196-6.852,7.445-6.852,7.445c-1.175,0.964-1.601,1.015-2.364,0.253l-0.222-0.224l-2.084,1.636l0.282,0.282
		c0.785,0.787,1.524,1.328,2.524,1.425c-1.45,0.763-2.687,1.413-2.903,1.526c-0.225-0.23-1.305-1.352-1.875-1.941
		c-0.085-1.484-1.309-2.669-2.815-2.669c-1.561,0-2.83,1.269-2.83,2.829v0.146l1.084,1.084v-0.855c0-0.191,0.074-0.37,0.208-0.506
		c0.279-0.277,0.733-0.277,1.012,0c0,0,0.834,0.908,1.39,1.513l-0.005,0.007l0.224,0.23c0.158,0.17,0.267,0.287,0.267,0.287
		l0.007-0.008l0.629,0.646l-0.813-0.001c-0.537-0.445-1.205-0.683-1.907-0.654c-0.756,0.03-1.455,0.353-1.968,0.908
		c-0.372,0.401-0.609,0.896-0.702,1.423c-3.125-5.083-4.932-11.061-4.932-17.451c0-2.681,0.327-5.285,0.926-7.787
		C49.927,50.783,50.465,50.918,51.082,50.804z M54.934,77.164c0-0.209,0.083-0.432,0.24-0.598c0.163-0.182,0.385-0.282,0.628-0.293
		l2.036,0.006c-1.017,0.23-1.894,0.9-2.376,1.854c-0.25-0.361-0.502-0.77-0.528-0.939C54.934,77.182,54.934,77.172,54.934,77.164z
		 M57.526,80.133c0.044-0.185,0.156-0.342,0.318-0.443l4.267-2.41l1.194,1.229l-0.018,0.014l0.294,0.271l0.22,0.225l0.013-0.01
		l1.524,1.399c0.266,0.269,0.266,0.723-0.013,1c-0.135,0.134-0.314,0.209-0.505,0.209h-0.857l1.085,1.083h0.147
		c0.755,0.001,1.466-0.295,2-0.827c0.535-0.536,0.829-1.245,0.829-2.003c0-1.505-1.184-2.727-2.667-2.812
		c-0.333-0.334-0.809-0.809-1.046-1.046c0.679-0.432,12.504-7.936,13.605-8.633c-0.371,4.136-3.938,8.989-7.306,11.897
		c-1.541,1.541-2.132,3.261-2.132,4.75c0,1.314,0.461,2.449,1.137,3.125c0.592,0.593,1.495,0.771,2.245,0.44l0.475-0.208
		l-0.367-0.367c-0.597-0.598-0.809-1.638-0.809-2.412c0-1.557,0.401-2.348,1.153-3.164c0.159,0.158,0.494,0.494,0.964,0.965
		c-0.318,0.859-0.471,1.728-0.471,2.559c0,1.663,0.587,3.171,1.559,4.143c0.203,0.203,2.357,1.989,3.262,1.687l0.648-0.22
		l-0.552-0.402c-0.316-0.232-1.335-1.42-1.681-2.145c-0.277-0.578-0.441-1.273-0.441-2.008c0-1.185,0.484-2.556,1.555-3.625
		c0.057-0.084,2.417-5.908,3.621-8.713c0,0.063,0.002,0.551,0.002,0.551c0.008,0.66,0.015,1.313,0.015,1.953
		c0,3.39-0.206,6.397-1.695,7.889c-0.926,0.926-2.647,1.416-2.647,1.416l0.446,0.525c0.043,0.049,0.759,1.151,1.917,1.188
		c0.276,0.011,0.494-0.177,0.734-0.289c0.061,2.653,0.56,3.694,1.452,4.694c-8.902-0.264-16.941-4.02-22.786-9.948l-0.601-0.986
		c-0.071-0.112-0.108-0.241-0.108-0.375C57.507,80.242,57.514,80.188,57.526,80.133z M75.441,32.669l0.805-1.367h-3.325l0.389-1.422
		c0-0.685-0.555-1.241-1.241-1.241c-0.167,0-0.325,0.035-0.469,0.095c0.027-0.125,0.046-0.243,0.046-0.334
		c0-0.452-0.366-0.819-0.817-0.819c-0.452,0-0.819,0.367-0.819,0.819c0,0.091,0.019,0.209,0.046,0.334
		c-0.145-0.06-0.302-0.095-0.468-0.095c-0.687,0-1.241,0.557-1.241,1.241l0.388,1.422h-0.876c-0.602,0-1.103,0.429-1.217,0.995
		c-0.182-0.051-0.374-0.082-0.571-0.082c-1.127,0-2.041,0.914-2.041,2.041c0,0.352,0.091,0.684,0.246,0.972
		c0.346-0.638,1.019-1.07,1.793-1.07c0.695,0,1.307,0.349,1.676,0.879c0.043,0.062,0.083,0.125,0.118,0.191
		c0.106,0.194,0.166,0.414,0.203,0.642h-4.127c-1.127,0-2.041-0.914-2.041-2.039v0.426v0.461v0.426c0,1.128,0.913,2.041,2.041,2.041
		h3.911c-0.348,0.625-1.014,1.049-1.781,1.049c-0.04,0-0.079-0.003-0.12-0.006c0.369,0.533,0.983,0.883,1.681,0.883
		c0.871,0,1.613-0.547,1.905-1.316h5.526c1.126,0,2.041,0.913,2.041,2.039c0,0.524,0.002,1.263-0.52,1.822l-0.509,0.764
		l-3.481,5.372c-0.635,0.933-1.904,1.173-2.836,0.536c-0.93-0.635-1.174-1.943-0.54-2.873c0.81-0.451,1.127-1.383,0.977-2.352
		c-0.188-1.199-1.283-2.024-2.477-1.903l-0.686-0.015c-4.364,0-7.623-2.951-8.074-7.135c4.606-4.395,10.46-7.486,16.97-8.688
		l-0.484,3.02l4.436-3.601l1.497,3.849v5.957L75.441,32.669z M82.002,102.941c-24.663,0-44.727-20.065-44.727-44.729
		c0-21.817,15.706-40.025,36.405-43.938l0.623,0.768l-5.374,2.05l5.372,2.055l-3.628,4.463l5.679-0.905l-0.188,1.172
		c-16.437,2.786-28.997,17.12-28.997,34.337c0,19.209,15.627,34.837,34.835,34.837s34.836-15.628,34.836-34.837
		c0-17.209-12.545-31.533-28.968-34.333l-0.155-1.15l5.532,0.888l-3.48-4.521l5.229-1.996l-5.289-2.157l0.554-0.681
		c20.729,3.887,36.469,22.111,36.469,43.951C126.729,82.876,106.665,102.941,82.002,102.941z"/>
</g>
<g>
	<path d="M159.256,48.963c-10.304,0-12.628-5.908-12.628-12.479v-22.46h6.29v22.052c0,4.33,1.354,7.386,6.774,7.386
		c4.838,0,6.871-2.139,6.871-7.995V14.024h6.242v21.034C172.805,44.43,167.869,48.963,159.256,48.963z"/>
	<path d="M198.1,48.402c0,0-12.329-22.51-13.297-24.752c0.194,2.953,0.291,8.354,0.291,12.477v12.275h-6.096V14.024h7.991
		c0,0,12.087,21.9,13.297,24.498c-0.242-3.464-0.338-9.575-0.338-13.802V14.024h6.096v34.378H198.1z"/>
	<path d="M213.445,48.402V14.024h6.29v34.378H213.445z"/>
	<path d="M242.37,48.402h-7.259l-11.368-34.378h6.87l6.338,20.118c0.631,1.934,1.355,4.227,1.936,6.722h0.098
		c0.483-2.342,1.017-4.227,1.936-7.129l6.436-19.711h6.436L242.37,48.402z"/>
	<path d="M258.082,48.402V14.024h17.943v5.553h-11.588v8.454h11.002v5.398h-11.002v9.319h11.588v5.653L258.082,48.402
		L258.082,48.402z"/>
	<path d="M298.463,48.402l-9.096-14.209h-0.242v14.209h-6.289V14.024c2.564-0.153,5.611-0.202,9.385-0.202
		c7.211,0,11.855,2.647,11.855,9.675c0,5.094-3.387,8.761-8.322,9.575c0.92,1.272,1.838,2.598,2.66,3.77l7.84,11.561L298.463,48.402
		L298.463,48.402z M291.592,19.22c-0.918,0-1.838,0.052-2.467,0.153v9.931c0.436,0.051,1.307,0.103,2.273,0.103
		c3.772,0,6.098-2.037,6.098-5.246C297.496,20.85,295.561,19.22,291.592,19.22z"/>
	<path d="M316.887,48.963c-2.321,0-4.645-0.256-6.678-0.814l0.389-6.164c1.838,0.662,4.451,1.224,6.82,1.224
		c3.193,0,5.662-1.374,5.662-4.532c0-6.57-13.693-3.566-13.693-14.873c0-6.111,4.599-10.338,12.437-10.338
		c1.84,0,3.967,0.255,5.903,0.61l-0.34,5.807c-1.84-0.56-3.871-0.917-5.854-0.917c-3.627,0-5.467,1.732-5.467,4.177
		c0,6.162,13.741,3.87,13.741,14.616C329.807,44.226,324.918,48.963,316.887,48.963z"/>
	<path d="M334.885,48.402V14.024h6.291v34.378H334.885z"/>
	<path d="M360.238,19.68v28.723h-6.291V19.68h-8.467v-5.655h23.225v5.655H360.238z"/>
	<path d="M373.672,48.402V14.024h18.691v5.553h-12.07v8.454h11.459v5.398h-11.459v9.319h12.07v5.653L373.672,48.402L373.672,48.402z
		 M380.648,11.785l-2.24-3.719l8.912-5.603l2.701,4.482L380.648,11.785z"/>
	<path d="M156.381,103.454c-3.566,0-6.672-0.153-9.575-0.255V68.923c2.698-0.103,6.876-0.254,11.103-0.254
		c10.644,0,17.418,4.736,17.418,16.808C175.327,97.292,167.586,103.454,156.381,103.454z M157.45,74.221
		c-1.528,0-2.954,0.051-4.022,0.153v23.172c0.916,0.152,2.291,0.255,3.615,0.255c6.468,0,11.154-3.667,11.154-11.814
		C168.197,78.6,165.293,74.221,157.45,74.221z"/>
	<path d="M179.808,103.25V68.872h18.691v5.553H186.43v8.454h11.459v5.396H186.43v9.32h12.069v5.653L179.808,103.25L179.808,103.25z"
		/>
	<path d="M245.914,76.003c-2.75-1.069-5.907-1.731-9.115-1.731c-6.775,0-11.664,4.277-11.664,11.969
		c0,7.283,3.975,11.562,10.949,11.562c1.63,0,3.057-0.204,4.381-0.61V85.221h6.621v16.399c-3.412,1.375-7.641,2.139-11.764,2.139
		c-10.899,0-17.367-6.417-17.367-16.907c0-10.797,7.332-18.487,19.25-18.487c3.413,0,6.773,0.61,9.729,1.478L245.914,76.003z"/>
	<path d="M254.113,103.25V68.872h18.691v5.553h-12.07v8.454h11.459v5.396h-11.459v9.32h12.07v5.653L254.113,103.25L254.113,103.25z"
		/>
	<path d="M299.779,103.25c0,0-12.969-22.51-13.986-24.752c0.203,2.953,0.305,8.354,0.305,12.479v12.273h-6.418V68.872h8.424
		c0,0,12.713,21.899,13.986,24.497c-0.256-3.463-0.357-9.574-0.357-13.803V68.872h6.419v34.378H299.779z"/>
	<path d="M315.027,103.25V68.872h18.688v5.553h-12.069v8.454h11.459v5.396h-11.459v9.32h12.069v5.653L315.027,103.25L315.027,103.25
		z M326.383,66.684l-9.371-4.839l2.804-4.532l8.858,5.603L326.383,66.684z"/>
	<path d="M357.398,103.25h-7.64L337.79,68.872h7.232l6.672,20.117c0.662,1.935,1.426,4.228,2.037,6.724h0.102
		c0.51-2.344,1.07-4.229,2.037-7.13l6.772-19.711h6.773L357.398,103.25z"/>
	<path d="M373.746,103.25V68.872h18.693v5.553h-12.07v8.454h11.457v5.396h-11.457v9.32h12.07v5.653L373.746,103.25L373.746,103.25z"
		/>
</g>
</svg>
