<svg width="90" height="91" viewBox="0 0 90 91" fill="none" xmlns="http://www.w3.org/2000/svg">
<path fill-rule="evenodd" clip-rule="evenodd" d="M42.7259 10.0121C44.1122 9.12487 45.8879 9.12487 47.2741 10.0121L82.4304 32.5121C84.3928 33.7681 84.9656 36.3771 83.7096 38.3396C82.4536 40.302 79.8446 40.8747 77.8821 39.6188L74.5312 37.4742V71.2217C74.5312 77.4349 69.4944 82.4717 63.2812 82.4717H26.7187C20.5055 82.4717 15.4687 77.4349 15.4687 71.2217V37.4742L12.1179 39.6188C10.1554 40.8747 7.54639 40.302 6.29042 38.3396C5.03445 36.3771 5.60717 33.7681 7.56962 32.5121L42.7259 10.0121ZM30.9375 50.8311C30.9375 52.9098 31.7576 54.7971 33.0919 56.1869L42.9852 66.3412C44.0893 67.4744 45.9105 67.4743 47.0145 66.3408L56.708 56.3879C58.1599 54.9818 59.0625 53.0118 59.0625 50.8311C59.0625 46.5595 55.5997 43.0967 51.3281 43.0967C48.7123 43.0967 46.3997 45.9773 45 47.965C43.6003 45.9773 41.2877 43.0967 38.6719 43.0967C34.4003 43.0967 30.9375 46.5595 30.9375 50.8311Z" stroke="#004318" stroke-width="3" stroke-linecap="round" stroke-linejoin="round"/>
</svg>
