<svg width="38" height="41" viewBox="0 0 38 41" fill="none" xmlns="http://www.w3.org/2000/svg">
<path fill-rule="evenodd" clip-rule="evenodd" d="M18.8498 5.44824C15.0101 5.44824 14.5294 5.46507 13.0214 5.53731C11.5162 5.60955 10.488 5.86091 9.58885 6.22806C8.64636 6.60015 7.79152 7.18403 7.08465 7.94009C6.36574 8.68145 5.80933 9.5784 5.45414 10.5685C5.10636 11.5126 4.86603 12.5933 4.79723 14.1737C4.72937 15.7561 4.7124 16.2598 4.7124 20.2925C4.7124 24.3252 4.72842 24.8289 4.79723 26.4123C4.86603 27.9927 5.10542 29.0723 5.45508 30.0164C5.80946 31.006 6.36553 31.9036 7.08559 32.6458C7.79166 33.4007 8.6459 33.9849 9.58885 34.3579C10.488 34.724 11.5162 34.9754 13.0214 35.0476C14.5294 35.1199 15.0101 35.1367 18.8498 35.1367C22.6895 35.1367 23.1701 35.1199 24.6781 35.0476C26.1833 34.9754 27.2115 34.724 28.1107 34.3569C29.0532 33.9848 29.908 33.4009 30.6149 32.6449C31.3338 31.9035 31.8902 31.0065 32.2454 30.0164C32.5941 29.0723 32.8335 27.9927 32.9023 26.4123C32.9711 24.8289 32.9871 24.3242 32.9871 20.2925C32.9871 16.2608 32.9711 15.7561 32.9023 14.1727C32.8335 12.5923 32.5941 11.5126 32.2444 10.5685C31.8895 9.57797 31.3331 8.68064 30.6139 7.9391C29.9079 7.18425 29.0536 6.60001 28.1107 6.22707C27.2115 5.8619 26.1823 5.60955 24.6772 5.53731C23.1701 5.46606 22.6904 5.44824 18.8498 5.44824ZM18.8498 8.12317C22.6244 8.12317 23.0721 8.13802 24.5631 8.20927C25.9411 8.27557 26.6894 8.51605 27.188 8.7209C27.8477 8.98909 28.319 9.3117 28.8138 9.83026C29.3086 10.3498 29.6149 10.8446 29.8703 11.5373C30.0645 12.0609 30.2944 12.8466 30.3576 14.2934C30.4254 15.859 30.4396 16.3291 30.4396 20.2925C30.4396 24.2559 30.4254 24.7259 30.3576 26.2915C30.2944 27.7383 30.0654 28.5241 29.8703 29.0476C29.644 29.6924 29.283 30.2757 28.8138 30.7547C28.3577 31.2475 27.8021 31.6266 27.188 31.864C26.6894 32.0679 25.9411 32.3094 24.5631 32.3757C23.0721 32.4469 22.6254 32.4618 18.8498 32.4618C15.0741 32.4618 14.6274 32.4469 13.1364 32.3757C11.7585 32.3094 11.0101 32.0689 10.5115 31.864C9.89747 31.6265 9.34192 31.2474 8.88575 30.7547C8.41656 30.2757 8.05554 29.6923 7.82922 29.0476C7.63507 28.5241 7.4051 27.7383 7.34195 26.2915C7.27409 24.7259 7.25995 24.2559 7.25995 20.2925C7.25995 16.3291 7.27409 15.859 7.34195 14.2934C7.4051 12.8466 7.63412 12.0609 7.82922 11.5373C8.08463 10.8446 8.39189 10.3498 8.88575 9.83026C9.34186 9.33747 9.89743 8.95838 10.5115 8.7209C11.0101 8.51704 11.7585 8.27557 13.1364 8.20927C14.6274 8.13802 15.0751 8.12317 18.8498 8.12317Z" fill="#004318"/>
<path fill-rule="evenodd" clip-rule="evenodd" d="M18.8499 25.2458C18.2304 25.2458 17.617 25.1177 17.0447 24.8688C16.4724 24.6198 15.9523 24.255 15.5143 23.7951C15.0763 23.3351 14.7288 22.7891 14.4918 22.1882C14.2547 21.5873 14.1327 20.9432 14.1327 20.2928C14.1327 19.6423 14.2547 18.9982 14.4918 18.3973C14.7288 17.7964 15.0763 17.2504 15.5143 16.7904C15.9523 16.3305 16.4724 15.9657 17.0447 15.7168C17.617 15.4678 18.2304 15.3397 18.8499 15.3397C20.1009 15.3397 21.3008 15.8616 22.1854 16.7904C23.07 17.7193 23.567 18.9791 23.567 20.2928C23.567 21.6064 23.07 22.8662 22.1854 23.7951C21.3008 24.7239 20.1009 25.2458 18.8499 25.2458ZM18.8499 12.6628C16.9226 12.6628 15.0743 13.4667 13.7116 14.8976C12.3488 16.3285 11.5833 18.2692 11.5833 20.2928C11.5833 22.3163 12.3488 24.257 13.7116 25.6879C15.0743 27.1188 16.9226 27.9227 18.8499 27.9227C20.7771 27.9227 22.6254 27.1188 23.9881 25.6879C25.3509 24.257 26.1165 22.3163 26.1165 20.2928C26.1165 18.2692 25.3509 16.3285 23.9881 14.8976C22.6254 13.4667 20.7771 12.6628 18.8499 12.6628ZM28.2305 12.5243C28.2305 13.0026 28.0495 13.4614 27.7274 13.7996C27.4052 14.1378 26.9683 14.3279 26.5128 14.3279C26.0572 14.3279 25.6203 14.1378 25.2982 13.7996C24.9761 13.4614 24.7951 13.0026 24.7951 12.5243C24.7951 12.0459 24.9761 11.5872 25.2982 11.249C25.6203 10.9107 26.0572 10.7207 26.5128 10.7207C26.9683 10.7207 27.4052 10.9107 27.7274 11.249C28.0495 11.5872 28.2305 12.0459 28.2305 12.5243Z" fill="#004318"/>
</svg>
