<svg width="29" height="31" viewBox="0 0 29 31" fill="none" xmlns="http://www.w3.org/2000/svg">
<path d="M28.2747 2.68298V28.0055C28.2747 28.5844 28.0557 29.1397 27.6658 29.5491C27.2759 29.9585 26.7471 30.1885 26.1957 30.1885H2.07902C1.52763 30.1885 0.998825 29.9585 0.608932 29.5491C0.219039 29.1397 0 28.5844 0 28.0055L0 2.68298C0 2.10401 0.219039 1.54877 0.608932 1.13938C0.998825 0.729991 1.52763 0.5 2.07902 0.5L26.1957 0.5C26.7471 0.5 27.2759 0.729991 27.6658 1.13938C28.0557 1.54877 28.2747 2.10401 28.2747 2.68298ZM8.3161 11.8515H4.15805V25.8225H8.3161V11.8515ZM8.69032 7.04893C8.69251 6.71868 8.63273 6.39121 8.51439 6.08522C8.39605 5.77923 8.22146 5.50071 8.00061 5.26557C7.77975 5.03043 7.51695 4.84326 7.2272 4.71477C6.93745 4.58627 6.62644 4.51896 6.31192 4.51667H6.23707C5.59746 4.51667 4.98404 4.78346 4.53176 5.25835C4.07949 5.73324 3.8254 6.37733 3.8254 7.04893C3.8254 7.72052 4.07949 8.36461 4.53176 8.8395C4.98404 9.31439 5.59746 9.58118 6.23707 9.58118C6.55162 9.5893 6.8646 9.53227 7.15815 9.41334C7.45169 9.29441 7.72005 9.11592 7.94787 8.88806C8.17569 8.66019 8.35853 8.38743 8.48592 8.08535C8.61331 7.78327 8.68277 7.45779 8.69032 7.12751V7.04893ZM24.1167 17.3351C24.1167 13.1351 21.572 11.5022 19.0439 11.5022C18.2161 11.4587 17.392 11.6438 16.6536 12.0391C15.9153 12.4344 15.2885 13.026 14.8359 13.755H14.7195V11.8515H10.8109V25.8225H14.969V18.3917C14.9089 17.6306 15.1372 16.8754 15.6043 16.2901C16.0714 15.7048 16.7397 15.3366 17.4638 15.2656H17.6218C18.9441 15.2656 19.9254 16.1388 19.9254 18.3393V25.8225H24.0834L24.1167 17.3351Z" fill="#004318"/>
</svg>
