<?xml version="1.0" encoding="UTF-8"?>
<svg id="Layer_2" data-name="Layer 2" xmlns="http://www.w3.org/2000/svg" viewBox="0 0 295.48 64.01">
  <defs>
    <style>
      .cls-1 {
        fill: #10431f;
      }

      .cls-1, .cls-2 {
        stroke-width: 0px;
      }

      .cls-2 {
        fill: #008849;
      }
    </style>
  </defs>
  <g id="Layer_1-2" data-name="Layer 1">
    <path class="cls-2" d="m0,44.59l4.93-5.7c1.96,2.3,5.27,4.25,10.54,4.25,4.59,0,7.4-1.53,7.4-4.25,0-1.87-1.28-3.23-5.27-3.91l-6.04-1.02c-6.8-1.19-10.03-5.27-10.03-10.12,0-7.23,7.23-12.24,16.24-12.24,6.21,0,11.56,2.38,13.94,5.95l-5.19,5.44c-1.87-2.72-5.27-4.42-9.35-4.42-3.74,0-6.21,1.53-6.21,4.25,0,2.21,1.36,3.49,5.87,4.25l5.1.85c6.97,1.28,10.37,5.02,10.37,9.86,0,7.48-7.57,12.33-17.51,12.33-6.55,0-12.41-2.12-14.79-5.53Z"/>
    <path class="cls-2" d="m40.44,34.91v-15.22h-7v-6h1.67c5.92,0,8.33-3.93,8.33-9.6V.7h.67c3.08,0,4.67-.09,6.33-.7v12.7h14v7h-14v16.66c0,4.17,2.11,6.04,4.82,6.04,2.54,0,4.65-1.7,5.96-4.17l6.84,4.25c-2.19,4.76-7.19,7.4-13.07,7.4-8.86,0-14.56-5.87-14.56-14.96Z"/>
    <path class="cls-2" d="m69.44,37.05V12.7h3.6c3.54,0,4.88-.17,6.4-.68v23.04c0,5.1,2.02,6.97,6.15,6.97,5.89,0,9.85-4,9.85-10.88V12.7h3c3.32,0,4.58-.17,6-.68v37.68h-9v-6.75c-2.39,4.96-7.36,7.6-13.34,7.6-7.87,0-12.66-4.61-12.66-13.5Z"/>
    <path class="cls-2" d="m149.14,31.43c0-10.46,8.84-19.38,19.04-19.38s18.11,8.42,18.11,20.83h-27.29c.17,5.7,4.17,10.2,10.97,10.2,4.76,0,7.65-2.04,9.18-5.53l6.89,3.74c-2.8,5.53-8.33,9.27-16.41,9.27-11.82,0-20.49-8.67-20.49-19.13Zm9.95-4h17.51c-.42-4.85-3.66-8.76-8.67-8.76s-8.25,4.08-8.84,8.76Z"/>
    <path class="cls-2" d="m188.48,40.44c0-8.5,8.67-10.29,16.15-11.14,5.27-.6,7.4-.94,7.4-4.59s-2.04-5.19-6.55-5.19c-4.25,0-7.14,1.62-8.59,4.59l-6.54-3.91c2.72-5.36,8.93-8.16,16.32-8.16,9.27,0,15.05,4.42,15.05,14.03v23.63h-9.52v-5.53c-2.04,4.25-6.04,6.38-11.65,6.38-7.48,0-12.07-3.74-12.07-10.12Zm23.63-5.44v-3.49c-1.11,2.04-2.81,2.63-6.29,3.06-3.57.51-7.91,1.02-7.91,5.1,0,2.72,1.7,4.51,5.53,4.51,5.02,0,8.67-2.72,8.67-9.18Z"/>
    <path class="cls-2" d="m223.96,45.03l4.93-5.7c1.96,2.3,5.27,4.25,10.54,4.25,4.59,0,7.4-1.53,7.4-4.25,0-1.87-1.28-3.23-5.27-3.91l-6.04-1.02c-6.8-1.19-10.03-5.27-10.03-10.12,0-7.23,7.23-12.24,16.24-12.24,6.21,0,11.56,2.38,13.94,5.95l-5.19,5.44c-1.87-2.72-5.27-4.42-9.35-4.42-3.74,0-6.21,1.53-6.21,4.25,0,2.21,1.36,3.49,5.87,4.25l5.1.85c6.97,1.28,10.37,5.02,10.37,9.86,0,7.48-7.57,12.33-17.51,12.33-6.54,0-12.41-2.12-14.79-5.53Z"/>
    <polyline class="cls-1" points="264.42 50.51 256.26 30.93 265.71 28.01 270.69 40.57 286.31 1.13 293.37 1.33 295.48 1.13 274.99 50.55"/>
    <path class="cls-2" d="m274.62,52.66l-4.71,11.35h-10.03l4.19-11.38"/>
    <path class="cls-2" d="m106.23,30.61c0-10.44,8.6-19.18,18.07-19.18,5.88,0,10.7,3.48,12.81,8.15V.84l5.67-.09c3.6,0,2.75-.25,4.33-.75v49.03h-10v-7.3c-2.1,4.67-6.84,8.14-12.81,8.14-9.47,0-18.07-8.74-18.07-19.26Zm31.44-.46c0-6.55-4.84-11.14-10.03-11.14-5.7,0-10.2,4.59-10.2,11.14s4.51,11.22,10.2,11.22c5.19,0,10.03-4.68,10.03-11.22Z"/>
  </g>
</svg>