<svg width="28" height="34" viewBox="0 0 28 34" fill="none" xmlns="http://www.w3.org/2000/svg">
<path d="M23.8179 7.11475C22.0883 5.95574 20.84 4.10132 20.4506 1.93957C20.3665 1.4725 20.3203 0.991818 20.3203 0.5H14.8003L14.7914 23.2369C14.6986 25.7831 12.6597 27.8266 10.1601 27.8266C9.38327 27.8266 8.65177 27.627 8.00771 27.2787C6.53076 26.4798 5.52001 24.8887 5.52001 23.0576C5.52001 20.4279 7.60168 18.2884 10.1601 18.2884C10.6377 18.2884 11.0959 18.3694 11.5293 18.5089V12.717C11.0808 12.6542 10.6251 12.615 10.1601 12.615C4.55772 12.615 0 17.2996 0 23.0576C0 26.5905 1.71738 29.7169 4.33743 31.6074C5.98775 32.7982 7.99517 33.5 10.1601 33.5C15.7625 33.5 20.3203 28.8157 20.3203 23.0576V11.5281C22.4853 13.1252 25.1378 14.0663 28 14.0663V8.39293C26.4582 8.39293 25.0222 7.92184 23.8179 7.11475Z" fill="#004318"/>
</svg>
