<svg width="32" height="24" viewBox="0 0 32 24" fill="none" xmlns="http://www.w3.org/2000/svg">
<path fill-rule="evenodd" clip-rule="evenodd" d="M27.9481 1.1987C29.2991 1.57981 30.3678 2.70197 30.7308 4.12054C31.3962 6.70362 31.4164 12.0603 31.4164 12.0603C31.4164 12.0603 31.4164 17.4382 30.7509 20.0001C30.388 21.4187 29.3193 22.5408 27.9682 22.922C25.5283 23.6207 15.7082 23.6207 15.7082 23.6207C15.7082 23.6207 5.88805 23.6207 3.44814 22.922C2.09711 22.5408 1.02839 21.4187 0.665431 20.0001C0 17.417 0 12.0603 0 12.0603C0 12.0603 0 6.70362 0.645265 4.14172C1.00823 2.72314 2.07695 1.60099 3.42797 1.21988C5.86788 0.521168 15.688 0.5 15.688 0.5C15.688 0.5 25.5082 0.5 27.9481 1.1987ZM20.709 12.0603L12.5625 17.0148V7.10591L20.709 12.0603Z" fill="#004318"/>
</svg>
